<svg aria-hidden="true" style="position: absolute; width: 0; height: 0; overflow: hidden;" version="1.1" xmlns="http://www.w3.org/2000/svg" xmlns:xlink="http://www.w3.org/1999/xlink">
<defs>
<symbol id="icon-logo" viewBox="0 0 89 32">
<path d="M3.133 14.925v-4.533l-0.517-7.776h0.478l0.792 7.96 1.125 4.349h2.966l1.142-4.348 0.774-7.96h0.497l-0.534 7.776v4.532h2.764v-14.741h-4.421l-1.235 5.584-0.221 6.725h-0.48l-0.24-6.726-1.214-5.583h-4.44v14.741h2.764zM18.021 15.109c1.351 0 2.322-0.285 2.912-0.856 0.589-0.571 0.908-1.52 0.958-2.847 0.049-1.204 0.074-2.484 0.074-3.842s-0.024-2.65-0.074-3.878c-0.050-1.314-0.368-2.258-0.958-2.829s-1.56-0.857-2.912-0.857c-1.35 0-2.33 0.286-2.938 0.857s-0.924 1.514-0.949 2.829c-0.023 1.113-0.037 2.424-0.037 3.739 0 0.043 0 0.085 0 0.128v-0.007 0.292c0.002 1.261 0.014 2.45 0.037 3.568 0.024 1.327 0.341 2.276 0.949 2.847s1.588 0.856 2.939 0.856zM18.021 12.861c-0.725 0-1.099-0.312-1.124-0.939s-0.043-1.314-0.056-2.064c-0.012-0.688-0.019-1.499-0.019-2.312s0.007-1.624 0.021-2.434l-0.002 0.122c0.013-0.75 0.032-1.438 0.056-2.064 0.024-0.614 0.399-0.922 1.124-0.922 0.712 0 1.081 0.307 1.106 0.922 0.024 0.626 0.046 1.314 0.064 2.064 0.018 0.688 0.028 1.499 0.028 2.312s-0.010 1.624-0.031 2.432l0.002-0.12c-0.018 0.75-0.040 1.438-0.064 2.064s-0.393 0.94-1.106 0.94zM27.178 14.925c1.388 0 2.39-0.294 3.003-0.884s0.934-1.56 0.958-2.912c0.024-0.859 0.040-1.673 0.046-2.441s0.006-1.536 0-2.304c-0.006-0.767-0.022-1.574-0.046-2.422-0.024-1.351-0.344-2.318-0.958-2.902s-1.615-0.875-3.003-0.875h-3.74v14.741h3.74zM27.178 12.493h-0.976v-9.876h0.976c0.774 0 1.174 0.338 1.198 1.013 0.074 2.605 0.074 5.215 0 7.832-0.024 0.688-0.424 1.032-1.198 1.032zM39.026 14.925v-2.432h-3.61v-3.851h3.427v-2.432h-3.427v-3.593h3.611v-2.433h-6.376v14.74h6.376zM42.896 14.925v-4.974h0.626l1.4 4.974h2.93l-1.732-5.435c0.493-0.262 0.881-0.665 1.117-1.155l0.007-0.015c0.246-0.51 0.381-1.164 0.405-1.962 0.013-0.344 0.022-0.645 0.028-0.902s0.006-0.516 0-0.774c-0.010-0.416-0.020-0.731-0.032-1.045l0.004 0.143c-0.049-1.278-0.378-2.196-0.986-2.755s-1.6-0.838-2.976-0.838h-3.556v14.741h2.764zM43.688 7.518h-0.792v-4.901h0.792c0.762 0 1.161 0.338 1.198 1.013 0.029 0.43 0.046 0.932 0.046 1.438s-0.017 1.008-0.050 1.505l0.004-0.068c-0.037 0.675-0.436 1.013-1.198 1.013zM51.63 14.926l-0.239-5.658-0.479-6.67h0.516l0.755 7.499 1.106 4.827h4.202v-14.741h-2.672l0.221 6.32 0.516 5.989h-0.478l-1.014-7.61-1.106-4.699h-3.998v14.741h2.672zM2.838 31.816l0.314-3.078h2.137l0.314 3.078h2.838l-2.046-14.741h-4.348l-2.046 14.741h2.838zM5.030 26.306h-1.62l0.332-3.262 0.221-3.538h0.516l0.221 3.538 0.332 3.262zM12.309 31.816v-4.976h0.626l1.4 4.976h2.93l-1.732-5.436c0.492-0.262 0.88-0.665 1.117-1.155l0.007-0.015c0.246-0.51 0.382-1.163 0.406-1.962 0.013-0.344 0.022-0.646 0.028-0.904s0.006-0.515 0-0.773c-0.006-0.258-0.016-0.56-0.028-0.904-0.049-1.277-0.378-2.195-0.986-2.754-0.608-0.56-1.6-0.838-2.976-0.838h-3.556v14.741h2.764zM13.101 24.408h-0.792v-4.901h0.792c0.762 0 1.161 0.338 1.198 1.014 0.029 0.43 0.046 0.932 0.046 1.437s-0.017 1.007-0.050 1.505l0.004-0.068c-0.037 0.675-0.436 1.014-1.198 1.014zM23.143 31.816v-12.309h2.358v-2.432h-7.499v2.432h2.377v12.309h2.764zM34.604 32c1.314 0 2.273-0.286 2.874-0.857s0.934-1.52 0.995-2.847c0.024-0.565 0.040-1.179 0.046-1.842s-0.003-1.278-0.028-1.842h-3.704v2.395h1.014c0.020 0.27 0.032 0.585 0.032 0.903s-0.011 0.633-0.034 0.945l0.002-0.042c-0.024 0.307-0.141 0.541-0.35 0.701s-0.491 0.239-0.848 0.239c-0.712 0-1.087-0.314-1.124-0.94-0.047-0.789-0.083-1.775-0.1-2.766l-0.001-0.062c-0.009-0.459-0.014-1.001-0.014-1.543s0.005-1.084 0.015-1.624l-0.001 0.081c0.018-1.032 0.052-1.978 0.101-2.838 0.037-0.614 0.412-0.922 1.124-0.922 0.676 0 1.032 0.307 1.069 0.922 0.024 0.344 0.037 0.768 0.037 1.272s-0.012 0.926-0.037 1.27h2.764c0.024-0.282 0.037-0.62 0.037-1.013s-0.012-0.731-0.037-1.014c-0.086-1.314-0.424-2.258-1.014-2.829s-1.529-0.856-2.819-0.856c-0.909 0-1.642 0.126-2.202 0.377-0.551 0.247-0.984 0.677-1.228 1.21l-0.006 0.015c-0.264 0.565-0.415 1.314-0.452 2.248-0.012 0.491-0.024 1.062-0.037 1.714-0.012 0.607-0.019 1.323-0.019 2.041s0.007 1.433 0.021 2.148l-0.002-0.107c0.013 0.657 0.025 1.244 0.037 1.76 0.037 0.884 0.184 1.597 0.442 2.137 0.254 0.534 0.683 0.95 1.21 1.183l0.015 0.006c0.559 0.252 1.299 0.378 2.22 0.378zM42.104 31.816l0.313-3.078h2.138l0.313 3.078h2.838l-2.045-14.741h-4.349l-2.045 14.741h2.838zM44.296 26.306h-1.621l0.331-3.262 0.222-3.538h0.515l0.222 3.538 0.331 3.262zM55.205 31.816v-2.432h-3.63v-12.31h-2.764v14.742h6.394zM62.704 31.816v-2.432h-3.63v-12.31h-2.764v14.742h6.394zM70.185 31.816v-2.432h-3.611v-3.851h3.426v-2.432h-3.427v-3.594h3.611v-2.432h-6.375v14.741h6.376zM74.054 31.816v-4.976h0.626l1.4 4.976h2.93l-1.732-5.436c0.493-0.262 0.881-0.665 1.117-1.155l0.007-0.015c0.246-0.51 0.381-1.163 0.406-1.962 0.012-0.344 0.021-0.646 0.027-0.904s0.006-0.515 0-0.773c-0.010-0.413-0.020-0.728-0.031-1.043l0.004 0.139c-0.050-1.277-0.378-2.195-0.986-2.754-0.608-0.56-1.6-0.838-2.976-0.838h-3.556v14.741h2.764zM74.846 24.408h-0.792v-4.901h0.792c0.762 0 1.162 0.338 1.198 1.014 0.029 0.43 0.046 0.932 0.046 1.437s-0.017 1.007-0.050 1.505l0.004-0.068c-0.037 0.675-0.436 1.014-1.198 1.014zM85.276 31.816v-3.52l0.202-0.848 2.562-10.373h-2.819l-0.792 3.574-0.277 4.33h-0.516l-0.276-4.33-0.792-3.574h-2.82l2.562 10.392 0.202 0.829v3.52h2.764z"></path>
</symbol>
<symbol id="icon-icon-facebook" viewBox="0 0 32 32">
<path d="M30.234 0h-28.467c-0.976 0-1.766 0.79-1.766 1.766v28.469c0 0.974 0.79 1.765 1.766 1.765h15.328v-12.392h-4.173v-4.829h4.17v-3.563c0-4.133 2.525-6.384 6.213-6.384 1.766 0 3.283 0.131 3.726 0.19v4.32h-2.557c-2.006 0-2.394 0.955-2.394 2.352v3.085h4.782l-0.624 4.829h-4.16v12.392h8.157c0.973 0 1.763-0.79 1.763-1.766v-28.467c0.002-0.976-0.789-1.766-1.765-1.766z"></path>
</symbol>
<symbol id="icon-icon-instagram" viewBox="0 0 32 32">
<path d="M16 2.883c4.272 0 4.779 0.016 6.467 0.094 4.336 0.197 6.36 2.254 6.558 6.558 0.077 1.686 0.091 2.192 0.091 6.464 0 4.275-0.016 4.781-0.091 6.467-0.198 4.299-2.219 6.36-6.56 6.558-1.686 0.077-2.192 0.093-6.466 0.093-4.272 0-4.779-0.016-6.464-0.093-4.349-0.198-6.363-2.266-6.56-6.56-0.077-1.686-0.093-2.192-0.093-6.466 0-4.272 0.016-4.778 0.093-6.464 0.198-4.304 2.219-6.363 6.56-6.56 1.686-0.077 2.192-0.093 6.464-0.093zM16 0c-4.346 0-4.89 0.019-6.597 0.096-5.81 0.267-9.040 3.491-9.306 9.307-0.082 1.707-0.098 2.251-0.098 6.597s0.019 4.891 0.096 6.597c0.267 5.811 3.491 9.040 9.307 9.307 1.707 0.077 2.251 0.096 6.597 0.096s4.891-0.019 6.597-0.096c5.806-0.267 9.043-3.491 9.306-9.307 0.080-1.706 0.098-2.251 0.098-6.597s-0.019-4.89-0.096-6.595c-0.261-5.806-3.488-9.040-9.306-9.309-1.707-0.080-2.253-0.096-6.598-0.096zM16 7.784c-4.538 0-8.216 3.678-8.216 8.216s3.678 8.216 8.216 8.216v0c4.538 0 8.216-3.678 8.216-8.216s-3.678-8.216-8.216-8.216v0zM16 21.333c-2.945 0-5.333-2.388-5.333-5.333s2.388-5.333 5.333-5.333v0c2.945 0 5.333 2.388 5.333 5.333s-2.388 5.333-5.333 5.333v0zM24.541 5.541c-1.060 0-1.92 0.86-1.92 1.92s0.86 1.92 1.92 1.92v0c1.060 0 1.92-0.86 1.92-1.92s-0.86-1.92-1.92-1.92v0z"></path>
</symbol>
<symbol id="icon-icon-twitter" viewBox="0 0 38 32">
<path d="M37.647 4.088c-1.292 0.589-2.791 1.017-4.362 1.209l-0.074 0.007c1.598-0.966 2.8-2.452 3.382-4.218l0.016-0.055c-1.412 0.853-3.055 1.503-4.806 1.858l-0.099 0.017c-1.41-1.503-3.41-2.44-5.627-2.44-0.004 0-0.007 0-0.011 0h0.001c-4.988 0-8.651 4.653-7.526 9.481-6.434-0.331-12.093-3.387-15.888-8.027l-0.031-0.039c-0.657 1.113-1.045 2.452-1.045 3.882 0 2.669 1.352 5.022 3.408 6.412l0.027 0.017c-1.29-0.042-2.489-0.395-3.536-0.986l0.038 0.020c-0.085 3.576 2.481 6.925 6.195 7.671-0.608 0.172-1.307 0.271-2.029 0.271-0.516 0-1.021-0.050-1.508-0.147l0.049 0.008c1.016 3.093 3.85 5.298 7.208 5.363l0.008 0c-2.612 2.063-5.952 3.309-9.583 3.309-0.653 0-1.297-0.040-1.928-0.119l0.076 0.008c3.341 2.175 7.428 3.469 11.818 3.469 0.008 0 0.015 0 0.023 0h-0.001c14.34 0 22.443-12.111 21.954-22.974 1.517-1.106 2.795-2.431 3.818-3.943l0.035-0.056z"></path>
</symbol>
</defs>
</svg>
